<svg xmlns="http://www.w3.org/2000/svg" x="0px" y="0px" width="100" height="100" viewBox="0 0 48 48"
style="fill:#7950F2;">
<path d="M 20.736328 2.0488281 C 17.777531 2.0488281 14.943011 3.2483786 12.884766 5.375 C 10.826511 7.5016311 9.7182872 10.374061 9.8144531 13.332031 A 1.50015 1.50015 0 0 0 9.8144531 13.333984 C 9.9155517 16.406588 10.000425 18.977298 10.001953 19.023438 L 9.0097656 19.023438 C 8.4537656 19.023437 8.0039062 19.473297 8.0039062 20.029297 L 8.0039062 24.376953 C 8.0039063 25.429953 8.3069063 26.461703 8.8789062 27.345703 C 9.4169062 28.176703 10.003906 29.080078 10.003906 29.080078 L 10.003906 34.898438 C 10.003906 36.808489 10.840502 38.703193 12.423828 39.949219 A 1.50015 1.50015 0 0 0 12.486328 39.996094 L 19.873047 45.222656 C 20.435493 45.628652 21.234033 46.029297 22.164062 46.029297 L 24.884766 46.029297 C 25.814795 46.029297 26.653507 45.745067 27.337891 45.087891 L 27.164062 45.230469 L 34.5625 39.996094 A 1.50015 1.50015 0 0 0 34.623047 39.949219 C 36.206054 38.703444 37.044922 36.809171 37.044922 34.898438 L 37.044922 29.095703 C 37.05282 29.083505 37.626813 28.196434 38.160156 27.371094 C 38.732156 26.487094 39.037109 25.457297 39.037109 24.404297 L 39.037109 20.056641 C 39.037109 19.500641 38.58725 19.050781 38.03125 19.050781 L 37.267578 19.050781 C 37.26909 18.973564 37.323566 16.175329 37.388672 12.916016 C 37.445678 10.054051 36.349273 7.2884337 34.345703 5.2441406 C 32.342154 3.2010324 29.598767 2.0488281 26.736328 2.0488281 L 20.736328 2.0488281 z M 24.519531 13.332031 C 26.644081 13.337731 29.256509 14.902641 31.25 16.613281 C 32.659358 17.82267 33.531263 18.800928 34.044922 19.404297 L 34.044922 20.455078 C 33.443082 20.227012 32.75792 20.072055 31.994141 20.080078 C 30.436485 20.096678 28.928326 20.950491 27.667969 21.728516 C 26.407611 22.50654 25.445312 23.279297 25.445312 23.279297 A 1.0003369 1.0003369 0 0 0 26.697266 24.839844 C 26.697266 24.839844 27.575108 24.135662 28.71875 23.429688 C 28.809944 23.373393 28.911204 23.322702 29.005859 23.267578 C 28.989286 23.357353 28.978516 23.448435 28.978516 23.542969 C 28.978516 24.379969 29.658094 25.060547 30.496094 25.060547 C 31.333094 25.060547 32.011719 24.379969 32.011719 23.542969 C 32.011719 22.983414 31.705166 22.499287 31.253906 22.236328 C 31.550403 22.145276 31.818054 22.082184 32.015625 22.080078 C 32.805803 22.07178 33.499917 22.362815 34.044922 22.693359 L 34.044922 34.898438 C 34.044922 35.915875 33.57979 36.949384 32.771484 37.587891 L 25.431641 42.78125 A 1.50015 1.50015 0 0 0 25.259766 42.923828 C 25.290146 42.894648 25.042736 43.029297 24.884766 43.029297 L 22.164062 43.029297 C 22.006093 43.029297 21.934507 43.011068 21.626953 42.789062 A 1.50015 1.50015 0 0 0 21.617188 42.78125 L 14.275391 37.587891 C 13.467407 36.949636 13.003906 35.916556 13.003906 34.898438 L 13.003906 23.402344 C 13.466298 22.965871 14.583068 22.072731 15.970703 22.087891 C 16.169845 22.090013 16.440762 22.153707 16.740234 22.246094 C 16.299038 22.511574 16.001953 22.991188 16.001953 23.542969 C 16.001953 24.379969 16.679578 25.060547 17.517578 25.060547 C 18.354578 25.060547 19.033203 24.379969 19.033203 23.542969 C 19.033203 23.456478 19.023692 23.373577 19.009766 23.291016 C 19.094609 23.340718 19.185584 23.386874 19.267578 23.4375 C 20.410956 24.143459 21.287109 24.847656 21.287109 24.847656 A 1.0009483 1.0009483 0 1 0 22.541016 23.287109 C 22.541016 23.287109 21.576528 22.512416 20.316406 21.734375 C 19.056284 20.956334 17.549844 20.104491 15.992188 20.087891 C 14.790369 20.074762 13.786431 20.459384 13.003906 20.914062 L 13.003906 19.511719 L 16.255859 15.070312 C 16.338889 15.186238 16.353159 15.281112 16.447266 15.396484 C 17.563036 16.764398 19.692458 18.066249 22.636719 17.720703 A 1.50015 1.50015 0 0 0 23.40625 15.066406 C 22.926797 14.677479 22.881037 14.46101 22.873047 14.404297 C 22.865047 14.347587 22.861087 14.295498 22.998047 14.117188 C 23.271959 13.760566 24.252993 13.331281 24.519531 13.332031 z M 24.019531 34.072266 C 22.525695 34.076666 21.031242 34.443426 19.580078 35.15625 A 1.0001 1.0001 0 1 0 20.460938 36.951172 C 22.904609 35.75082 25.147824 35.723694 27.544922 36.945312 A 1.0005805 1.0005805 0 1 0 28.453125 35.162109 C 27.006674 34.424939 25.513368 34.067828 24.019531 34.072266 z"></path>
</svg>